<?xml version="1.0" encoding="utf-8"?>
<!-- Generator: Adobe Illustrator 21.1.0, SVG Export Plug-In . SVG Version: 6.00 Build 0)  -->
<svg version="1.1" id="Layer_1" xmlns="http://www.w3.org/2000/svg" xmlns:xlink="http://www.w3.org/1999/xlink" x="0px" y="0px"
	 viewBox="0 0 240 54" style="enable-background:new 0 0 240 54;" xml:space="preserve">
<style type="text/css">
	.st0{fill:#a19d9d;}
</style>
<g>
	<path class="st0" d="M45.9,14.7L45.9,14.7c-0.2-0.7-0.5-1.3-1.1-1.8c-1.7-1.3-3.4-2.1-5.1-2.7c-1.7-0.6-3.3-1-5-1.4
		c-3.3-0.6-6.6-0.9-9.9-0.9c-3.3,0-6.6,0.2-10,0.9c-1.7,0.3-3.3,0.8-5,1.4c-1.7,0.6-3.4,1.4-5,2.7c-0.1,0.1-0.2,0.1-0.3,0.2
		c-1.1,1.1-1.8,2.3-2.3,3.5c-0.5,1.2-0.9,2.3-1.2,3.5C0.3,22.4,0,24.7,0,27c0,2.3,0.2,4.6,0.7,7C1,35.1,1.4,36.3,2,37.5
		C2.6,38.7,3.4,40,4.7,41l-0.2-0.2c0.9,0.8,1.7,1.4,2.6,1.9c0.9,0.5,1.7,0.9,2.6,1.2c1.7,0.6,3.4,1,5.1,1.4c3.3,0.6,6.7,0.9,10,0.8
		c3.3,0,6.6-0.3,10-1c1.7-0.3,3.3-0.8,5-1.4c1.7-0.6,3.4-1.4,5-2.7l-2-2.5c-1.4,0.8-2.9,1.2-4.4,1.5c-1.5,0.3-3,0.5-4.5,0.6
		c-3,0.3-6.1,0.2-9.1,0c-3-0.3-6-0.6-8.8-1.4c-1.4-0.4-2.8-0.8-4-1.3c-1.2-0.5-2.3-1.2-2.8-1.8L8.8,36c-0.3-0.3-0.6-0.8-0.9-1.4
		c-0.3-0.6-0.5-1.4-0.7-2.2c-0.3-1.7-0.5-3.5-0.4-5.3c0.1-1.8,0.4-3.6,0.8-5.3c0.2-0.8,0.5-1.6,0.8-2.3c0.3-0.6,0.6-1,0.8-1.3
		c0.8-0.5,1.8-1.1,3-1.5c1.2-0.4,2.6-0.8,3.9-1.1c2.8-0.5,5.7-0.8,8.6-0.8c2.9,0,5.8,0.2,8.6,0.8c1.4,0.3,2.8,0.6,4,1
		c0.8,0.3,1.6,0.6,2.2,0.9c0.2,1.1,0.3,2.3,0.3,3.4c0,0.8,0,1.7,0,2.5c0,0.4-0.1,0.8-0.1,1.2c-1.4,0.8-3.2,1.5-5.1,2
		c-2.4,0.6-4.8,0.9-7.4,1c-5,0.3-10.2-0.1-15-1.3l-0.8,3.1c2.5,0.9,5.2,1.6,7.9,2.1c2.7,0.5,5.4,0.8,8.2,0.9c2.8,0.1,5.6,0,8.4-0.4
		c1.4-0.2,2.9-0.5,4.3-1c1.5-0.5,2.9-1.1,4.4-2.1c0.5-0.3,0.9-0.8,1-1.4l0.1-0.2l0,0c0.3-1.2,0.5-2.3,0.6-3.3
		c0.1-1.1,0.1-2.1,0.1-3.2C46.5,18.9,46.4,16.9,45.9,14.7z"/>
	<path class="st0" d="M57.6,14.7L57.6,14.7c0.2-0.7,0.5-1.3,1.1-1.8c1.7-1.3,3.4-2.1,5.1-2.7c1.7-0.6,3.3-1,5-1.4
		c3.3-0.6,6.6-0.9,9.9-0.9c3.3,0,6.6,0.2,10,0.9c1.7,0.3,3.3,0.8,5,1.4c1.7,0.6,3.4,1.4,5,2.7c0.1,0.1,0.2,0.1,0.3,0.2
		c1.1,1.1,1.8,2.3,2.3,3.5c0.5,1.2,0.9,2.3,1.2,3.5c0.6,2.3,0.9,4.6,0.9,6.9c0,2.3-0.2,4.6-0.7,7c-0.3,1.2-0.7,2.4-1.3,3.6
		c-0.6,1.2-1.4,2.4-2.7,3.5l0.2-0.2c-0.9,0.8-1.7,1.4-2.6,1.9c-0.9,0.5-1.7,0.9-2.6,1.2c-1.7,0.6-3.4,1-5.1,1.4
		c-3.3,0.6-6.7,0.9-10,0.8c-3.3,0-6.6-0.3-10-1c-1.7-0.3-3.3-0.8-5-1.4c-1.7-0.6-3.4-1.4-5-2.7l2-2.5c1.4,0.8,2.9,1.2,4.4,1.5
		c1.5,0.3,3,0.5,4.5,0.6c3,0.3,6.1,0.2,9.1,0c3-0.3,6-0.6,8.8-1.4c1.4-0.4,2.8-0.8,4-1.3c1.2-0.5,2.3-1.2,2.8-1.8l0.2-0.2
		c0.3-0.3,0.6-0.8,0.9-1.4c0.3-0.6,0.5-1.4,0.7-2.2c0.3-1.7,0.5-3.5,0.4-5.3c-0.1-1.8-0.4-3.6-0.8-5.3c-0.2-0.8-0.5-1.6-0.8-2.3
		c-0.3-0.6-0.6-1-0.8-1.3c-0.8-0.5-1.8-1.1-3-1.5c-1.2-0.4-2.6-0.8-3.9-1.1c-2.8-0.5-5.7-0.8-8.6-0.8c-2.9,0-5.8,0.2-8.6,0.8
		c-1.4,0.3-2.8,0.6-4,1c-0.8,0.3-1.6,0.6-2.2,0.9c-0.2,1.1-0.3,2.3-0.3,3.4c0,0.8,0,1.7,0,2.5c0,0.4,0.1,0.8,0.1,1.2
		c1.4,0.8,3.2,1.5,5.1,2c2.4,0.6,4.8,0.9,7.4,1c5,0.3,10.2-0.1,15-1.3l0.8,3.1c-2.5,0.9-5.2,1.6-7.9,2.1c-2.7,0.5-5.4,0.8-8.2,0.9
		c-2.8,0.1-5.6,0-8.4-0.4c-1.4-0.2-2.9-0.5-4.3-1c-1.5-0.5-2.9-1.1-4.4-2.1c-0.5-0.3-0.9-0.8-1-1.4l-0.1-0.2l0,0
		c-0.3-1.2-0.5-2.3-0.6-3.3c-0.1-1.1-0.1-2.1-0.1-3.2C57,18.9,57.1,16.9,57.6,14.7z"/>
	<path class="st0" d="M113.8,14.7L113.8,14.7c0.2-0.7,0.5-1.3,1.1-1.8c1.7-1.3,3.4-2.1,5.1-2.7c1.7-0.6,3.3-1,5-1.4
		c3.3-0.6,6.6-0.9,9.9-0.9c3.3,0,6.6,0.2,10,0.9c1.7,0.3,3.3,0.8,5,1.4c1.7,0.6,3.4,1.4,5,2.7c0.1,0.1,0.2,0.1,0.3,0.2
		c1.1,1.1,1.8,2.3,2.3,3.5c0.5,1.2,0.9,2.3,1.2,3.5c0.6,2.3,0.9,4.6,0.9,6.9c0,2.3-0.2,4.6-0.7,7c-0.3,1.2-0.7,2.4-1.3,3.6
		c-0.6,1.2-1.4,2.4-2.7,3.5l0.2-0.2c-0.9,0.8-1.7,1.4-2.6,1.9c-0.9,0.5-1.7,0.9-2.6,1.2c-1.7,0.6-3.4,1-5.1,1.4
		c-3.3,0.6-6.7,0.9-10,0.8c-3.3,0-6.6-0.3-10-1c-1.7-0.3-3.3-0.8-5-1.4c-1.7-0.6-3.4-1.4-5-2.7l2-2.5c1.4,0.8,2.9,1.2,4.4,1.5
		c1.5,0.3,3,0.5,4.5,0.6c3,0.3,6.1,0.2,9.1,0c3-0.3,6-0.6,8.8-1.4c1.4-0.4,2.8-0.8,4-1.3c1.2-0.5,2.3-1.2,2.8-1.8l0.2-0.2
		c0.3-0.3,0.6-0.8,0.9-1.4c0.3-0.6,0.5-1.4,0.7-2.2c0.3-1.7,0.5-3.5,0.4-5.3c-0.1-1.8-0.4-3.6-0.8-5.3c-0.2-0.8-0.5-1.6-0.8-2.3
		c-0.3-0.6-0.6-1-0.8-1.3c-0.8-0.5-1.8-1.1-3-1.5c-1.2-0.4-2.6-0.8-3.9-1.1c-2.8-0.5-5.7-0.8-8.6-0.8c-2.9,0-5.8,0.2-8.6,0.8
		c-1.4,0.3-2.8,0.6-4,1c-0.8,0.3-1.6,0.6-2.2,0.9c-0.2,1.1-0.3,2.3-0.3,3.4c0,0.8,0,1.7,0,2.5c0,0.4,0.1,0.8,0.1,1.2
		c1.4,0.8,3.2,1.5,5.1,2c2.4,0.6,4.8,0.9,7.4,1c5,0.3,10.2-0.1,15-1.3l0.8,3.1c-2.5,0.9-5.2,1.6-7.9,2.1c-2.7,0.5-5.4,0.8-8.2,0.9
		c-2.8,0.1-5.6,0-8.4-0.4c-1.4-0.2-2.9-0.5-4.3-1c-1.5-0.5-2.9-1.1-4.4-2.1c-0.5-0.3-0.9-0.8-1-1.4l-0.1-0.2l0,0
		c-0.3-1.2-0.5-2.3-0.6-3.3c-0.1-1.1-0.1-2.1-0.1-3.2C113.1,18.9,113.3,16.9,113.8,14.7z"/>
	<g>
		<path class="st0" d="M200.1,17.8c-6.6-5.8-13.7-11.1-21.5-15.1c-1.3-0.6-2.6-1.3-3.8-1.9L174,3.7c6.2,6.2,12.1,13.1,16,17.3
			c1.5,1.6,2.1,2.4,3.5,3.8c1.1,1.2,1.1,3.1,0,4.3c-5.7,6.4-11.6,12.7-17.5,19.1c-0.6,0.6-1.2,1.3-2,2l0.8,3
			c1.2-0.6,2.5-1.3,3.8-1.9c7.8-4.1,14.9-9.3,21.5-15.2C206,30.9,206,23,200.1,17.8z"/>
		<path class="st0" d="M238,48.2c-5.8-6.4-11.7-12.6-17.5-19.1c-1.1-1.2-1.1-3.1,0-4.3c1.3-1.5,2-2.2,3.5-3.8
			c5.4-6,9.6-10.4,14-15.2c0.6-0.6,1.3-1.3,2-2.1l-0.8-3c-1.3,0.6-2.6,1.3-3.8,1.9c-7.8,4.1-14.9,9.3-21.5,15.1
			c-5.9,5.2-5.9,13.1,0,18.3c6.6,5.8,13.7,11.1,21.5,15.2c1.3,0.6,2.6,1.3,3.8,1.9l0.8-3C239.3,49.5,238.6,48.8,238,48.2z"/>
	</g>
	<rect x="169.2" y="23" class="st0" width="8.1" height="8.1"/>
</g>
</svg>
