<?xml version="1.0" encoding="utf-8"?>
<!-- Generator: Adobe Illustrator 21.1.0, SVG Export Plug-In . SVG Version: 6.00 Build 0)  -->
<svg version="1.1" id="Layer_1" xmlns="http://www.w3.org/2000/svg" xmlns:xlink="http://www.w3.org/1999/xlink" x="0px" y="0px"
	 viewBox="0 0 124 136" style="enable-background:new 0 0 124 136;" xml:space="preserve">
<style type="text/css">
	.st0{fill:#a19d9d;}
</style>
<g>
	<path class="st0" d="M121,113.5c-1.2-1.2-2.2-2.3-3-3.1c-1.6-1.7-3.2-3.5-4.8-5.2c3.6-15.3-0.1-35.2-2.3-44.2
		c-0.2-1-0.5-2.1-0.8-3.1c2.6-2.8,5.2-5.6,7.7-8.4c0.8-0.9,1.8-2,3.1-3.2l3-3l-1-4.1l-1.3-5l-2.2-8.8l-8.2,4
		c-2.4,1.2-4.5,2.2-6.5,3.2l0,0l0,0c-0.9,0.5-1.8,0.9-2.6,1.4c-4.5-10.2-9.7-18.7-14.8-23.8h0C79.8,3,71.3-0.4,62,0.1
		c-9.3-0.5-17.8,3-25.2,10.3C31.6,15.4,26.4,23.9,22,34.1c-0.9-0.5-1.8-0.9-2.6-1.4l0,0l0,0c-2-1-4.1-2.1-6.5-3.2l-8.2-4l-2.2,8.8
		l-1.2,4.8l-1,4.1l3,3c3.7,3.7,7.4,7.6,10.9,11.4c-0.3,1.1-0.6,2.3-0.9,3.4c-2.2,9.1-5.9,28.9-2.3,44.3c-1.6,1.7-3.2,3.4-4.7,5.1
		c-0.8,0.9-1.8,2-3,3.2l-3,3l1,4.1l1.3,5l2.2,8.9l8.2-4c2.4-1.2,4.5-2.2,6.5-3.2l0,0l0,0c1.4-0.7,2.8-1.5,4.2-2.3
		c9.6,7.6,23.2,11.6,38.5,11c1,0,2.1,0.1,3.1,0.1c14.1,0,26.5-4,35.4-11.1c1.4,0.8,2.8,1.6,4.2,2.3l0,0l0,0c2,1,4.1,2,6.5,3.2l8.2,4
		l2.2-8.9l1.3-5l1-4.1L121,113.5z M104.1,64.4c3,13.1,3.9,24.9,2.8,33.9c-5.6-6.1-11.3-12.3-16.9-18.5l0.9-0.9
		c1.1-1.2,2.1-2.4,3.7-4.1C98,71.1,101.1,67.7,104.1,64.4z M24,68.8c1.9,2.2,3.8,4.3,5.4,6c1.6,1.7,2.6,2.9,3.7,4.1l0.8,0.9
		c-5.6,6.2-11.3,12.4-16.9,18.5c-1.1-9.1-0.2-21,2.8-34.2C21.4,65.8,22.7,67.4,24,68.8z M114.5,123.8c-2.1-1-4.2-2.1-6.4-3.2
		c0,0,0,0,0,0c-0.7-0.3-1.4-0.7-2.1-1.1c-2.1-1.1-4.5-2.2-7-3.3c-9.8-4.4-21.9-9.5-31.1-14.9c8.7,7.7,17.2,14.1,25.7,19.5
		c-8.1,5.4-19.1,8.2-31.5,7.7l-0.2,0l-0.2,0c-12.4,0.5-23.4-2.3-31.5-7.7c8.5-5.3,17-11.8,25.7-19.4c-9.2,5.4-21.3,10.5-31.1,14.9
		c-2.5,1.1-4.9,2.2-7,3.3c-0.7,0.4-1.4,0.7-2.1,1.1c-2.1,1.1-4.3,2.1-6.4,3.2l-0.5-2l-0.8-3c0.6-0.6,1.2-1.2,1.7-1.8
		c0.3-0.3,0.5-0.6,0.8-0.8c0.3-0.3,0.5-0.5,0.7-0.8c0.7-0.8,1.4-1.5,2.1-2.3c1.7-1.9,3.5-3.8,5.2-5.7c0.1-0.1,0.2-0.2,0.2-0.3
		c4.8-5.2,9.6-10.4,14.4-15.6c2.4-2.7,4.8-5.3,7.2-8c0.9-1,1.4-2.3,1.4-3.5c0,0,0-0.1,0-0.1c0-0.3,0-0.6-0.1-1
		c-0.1-0.6-0.3-1.3-0.7-1.8c-0.2-0.3-0.4-0.6-0.6-0.8c-2.2-2.5-3.4-3.7-5.8-6.4c-0.4-0.4-0.8-0.9-1.2-1.4c-2.1-2.4-4.6-5.2-7.3-8.2
		c-1.4-1.5-2.8-3.1-4.3-4.7c-0.8-0.9-1.7-1.9-2.6-2.8c-1.1-1.2-2.2-2.3-3.3-3.5c-0.8-0.8-1.5-1.6-2.3-2.4c-1.9-2-3.8-4-5.8-5.9
		l1.2-4.8c1.1,0.5,2.1,1,3.2,1.6s2.2,1.1,3.2,1.6c1,0.5,2.1,1.1,3.3,1.6c2.1,1,4.4,2,6.8,3.1c9.6,4.3,21.2,9.2,30.2,14.5
		c-9.4-8.3-18.5-15.1-27.7-20.7c4.1-9.7,8.9-17.7,13.6-22.2C48,9.7,54.5,7,61.8,7.5l0.2,0l0.2,0C69.5,7,76,9.7,82,15.6h0
		c4.6,4.6,9.4,12.5,13.6,22.2c-9.2,5.6-18.3,12.4-27.7,20.7c8.9-5.3,20.5-10.2,30.2-14.5c2.4-1.1,4.7-2.1,6.8-3.1
		c1.2-0.6,2.3-1.1,3.3-1.6c1.1-0.5,2.1-1.1,3.2-1.6s2.1-1.1,3.2-1.6l1.3,5c-0.6,0.6-1.2,1.2-1.8,1.8c-0.4,0.4-0.8,0.9-1.2,1.3
		c-0.1,0.1-0.3,0.3-0.4,0.4c-1.6,1.7-3.1,3.4-4.6,5.1c-0.7,0.8-1.5,1.6-2.2,2.4c-1.2,1.3-2.4,2.6-3.7,3.9c-4,4.3-8.1,8.8-12.9,14
		c-1.8,2-2.9,3.2-4.3,4.8c-0.5,0.5-0.9,1-1.5,1.7c-0.9,1-1.4,2.3-1.4,3.6c0,1.3,0.5,2.6,1.4,3.6c4.8,5.4,9.7,10.7,14.6,16
		c2.4,2.6,4.7,5.1,7.1,7.7c1.8,2,3.7,4,5.5,6c0.7,0.8,1.4,1.5,2.1,2.3c0.2,0.3,0.5,0.5,0.7,0.8c0.3,0.3,0.5,0.6,0.8,0.8
		c0.6,0.6,1.1,1.2,1.7,1.8L114.5,123.8z"/>
</g>
</svg>
